<mxfile host="Electron" modified="2023-06-16T10:04:33.110Z" agent="Mozilla/5.0 (Windows NT 10.0; Win64; x64) AppleWebKit/537.36 (KHTML, like Gecko) draw.io/21.2.8 Chrome/112.0.5615.165 Electron/24.2.0 Safari/537.36" etag="ZTQvIQKsjlkRd0d9JO5a" version="21.2.8" type="device" pages="2">
  <diagram name="Page-1" id="eL6dXhvtMM3XdJj4Afb0">
    <mxGraphModel dx="1434" dy="1954" grid="1" gridSize="10" guides="1" tooltips="1" connect="1" arrows="1" fold="1" page="1" pageScale="1" pageWidth="850" pageHeight="1100" math="0" shadow="0">
      <root>
        <mxCell id="0" />
        <mxCell id="1" parent="0" />
        <mxCell id="dEJjFKd357VUm9aCtic6-3" style="rounded=0;orthogonalLoop=1;jettySize=auto;html=1;entryX=0;entryY=0.5;entryDx=0;entryDy=0;endArrow=baseDash;endFill=0;" edge="1" parent="1" source="dEJjFKd357VUm9aCtic6-1" target="dEJjFKd357VUm9aCtic6-2">
          <mxGeometry relative="1" as="geometry" />
        </mxCell>
        <mxCell id="dEJjFKd357VUm9aCtic6-6" style="rounded=0;orthogonalLoop=1;jettySize=auto;html=1;endArrow=baseDash;endFill=0;" edge="1" parent="1" source="dEJjFKd357VUm9aCtic6-1" target="dEJjFKd357VUm9aCtic6-5">
          <mxGeometry relative="1" as="geometry">
            <mxPoint x="250" y="410" as="targetPoint" />
          </mxGeometry>
        </mxCell>
        <mxCell id="dEJjFKd357VUm9aCtic6-47" style="rounded=0;orthogonalLoop=1;jettySize=auto;html=1;entryX=0.036;entryY=0.714;entryDx=0;entryDy=0;endArrow=baseDash;endFill=0;entryPerimeter=0;" edge="1" parent="1" target="dEJjFKd357VUm9aCtic6-27">
          <mxGeometry relative="1" as="geometry">
            <mxPoint x="20" y="290" as="sourcePoint" />
          </mxGeometry>
        </mxCell>
        <mxCell id="dEJjFKd357VUm9aCtic6-1" value="Cashier" style="shape=umlActor;verticalLabelPosition=bottom;verticalAlign=top;html=1;outlineConnect=0;" vertex="1" parent="1">
          <mxGeometry x="10" y="230" width="30" height="60" as="geometry" />
        </mxCell>
        <mxCell id="dEJjFKd357VUm9aCtic6-26" value="Pastry Shop" style="shape=umlFrame;whiteSpace=wrap;html=1;pointerEvents=0;recursiveResize=0;container=1;collapsible=0;width=160;" vertex="1" parent="1">
          <mxGeometry x="160" y="-90" width="760" height="1040" as="geometry" />
        </mxCell>
        <mxCell id="dEJjFKd357VUm9aCtic6-27" value="Handle order" style="ellipse;whiteSpace=wrap;html=1;" vertex="1" parent="dEJjFKd357VUm9aCtic6-26">
          <mxGeometry x="90" y="590" width="140" height="70" as="geometry" />
        </mxCell>
        <mxCell id="dEJjFKd357VUm9aCtic6-51" style="edgeStyle=orthogonalEdgeStyle;rounded=0;orthogonalLoop=1;jettySize=auto;html=1;exitX=0.5;exitY=1;exitDx=0;exitDy=0;dashed=1;endArrow=open;endFill=0;" edge="1" parent="dEJjFKd357VUm9aCtic6-26" source="dEJjFKd357VUm9aCtic6-5" target="dEJjFKd357VUm9aCtic6-27">
          <mxGeometry relative="1" as="geometry">
            <mxPoint x="90" y="740" as="targetPoint" />
          </mxGeometry>
        </mxCell>
        <mxCell id="dEJjFKd357VUm9aCtic6-52" value="include" style="edgeLabel;html=1;align=center;verticalAlign=middle;resizable=0;points=[];" vertex="1" connectable="0" parent="dEJjFKd357VUm9aCtic6-51">
          <mxGeometry x="0.0841" relative="1" as="geometry">
            <mxPoint as="offset" />
          </mxGeometry>
        </mxCell>
        <mxCell id="dEJjFKd357VUm9aCtic6-5" value="Create order" style="ellipse;whiteSpace=wrap;html=1;" vertex="1" parent="dEJjFKd357VUm9aCtic6-26">
          <mxGeometry x="90" y="460" width="140" height="70" as="geometry" />
        </mxCell>
        <mxCell id="nqhM6yKpEPfuKmGDAXL--1" value="Add cake&amp;nbsp;" style="ellipse;whiteSpace=wrap;html=1;" vertex="1" parent="dEJjFKd357VUm9aCtic6-26">
          <mxGeometry x="310" y="310" width="140" height="70" as="geometry" />
        </mxCell>
        <mxCell id="nqhM6yKpEPfuKmGDAXL--2" value="search by cake name" style="ellipse;whiteSpace=wrap;html=1;" vertex="1" parent="dEJjFKd357VUm9aCtic6-26">
          <mxGeometry x="550" y="310" width="140" height="70" as="geometry" />
        </mxCell>
        <mxCell id="nqhM6yKpEPfuKmGDAXL--4" value="&amp;lt;&amp;lt; include&amp;gt;&amp;gt;" style="rounded=0;orthogonalLoop=1;jettySize=auto;html=1;dashed=1;exitX=1;exitY=0;exitDx=0;exitDy=0;endArrow=open;endFill=0;entryX=0.5;entryY=1;entryDx=0;entryDy=0;" edge="1" parent="dEJjFKd357VUm9aCtic6-26" source="dEJjFKd357VUm9aCtic6-5" target="nqhM6yKpEPfuKmGDAXL--1">
          <mxGeometry relative="1" as="geometry">
            <mxPoint x="300" y="505" as="sourcePoint" />
            <mxPoint x="420" y="505" as="targetPoint" />
          </mxGeometry>
        </mxCell>
        <mxCell id="nqhM6yKpEPfuKmGDAXL--5" value="&amp;lt;&amp;lt; include&amp;gt;&amp;gt;" style="edgeStyle=orthogonalEdgeStyle;rounded=0;orthogonalLoop=1;jettySize=auto;html=1;dashed=1;exitX=1;exitY=0.5;exitDx=0;exitDy=0;endArrow=open;endFill=0;entryX=0;entryY=0.5;entryDx=0;entryDy=0;" edge="1" parent="dEJjFKd357VUm9aCtic6-26" source="nqhM6yKpEPfuKmGDAXL--1" target="nqhM6yKpEPfuKmGDAXL--2">
          <mxGeometry relative="1" as="geometry">
            <mxPoint x="279" y="480" as="sourcePoint" />
            <mxPoint x="333" y="411" as="targetPoint" />
          </mxGeometry>
        </mxCell>
        <mxCell id="dEJjFKd357VUm9aCtic6-11" value="Cancel order" style="ellipse;whiteSpace=wrap;html=1;" vertex="1" parent="dEJjFKd357VUm9aCtic6-26">
          <mxGeometry x="390" y="460" width="140" height="70" as="geometry" />
        </mxCell>
        <mxCell id="dEJjFKd357VUm9aCtic6-12" value="&amp;lt;&amp;lt; extend &amp;gt;&amp;gt;" style="edgeStyle=orthogonalEdgeStyle;rounded=0;orthogonalLoop=1;jettySize=auto;html=1;dashed=1;exitX=1;exitY=0.5;exitDx=0;exitDy=0;endArrow=open;endFill=0;" edge="1" parent="dEJjFKd357VUm9aCtic6-26" source="dEJjFKd357VUm9aCtic6-5" target="dEJjFKd357VUm9aCtic6-11">
          <mxGeometry relative="1" as="geometry">
            <mxPoint x="430" y="530" as="sourcePoint" />
          </mxGeometry>
        </mxCell>
        <mxCell id="nqhM6yKpEPfuKmGDAXL--6" value="Remove cake&amp;nbsp;" style="ellipse;whiteSpace=wrap;html=1;" vertex="1" parent="dEJjFKd357VUm9aCtic6-26">
          <mxGeometry x="570" y="420" width="140" height="70" as="geometry" />
        </mxCell>
        <mxCell id="nqhM6yKpEPfuKmGDAXL--7" value="&amp;lt;&amp;lt; extend &amp;gt;&amp;gt;" style="rounded=0;orthogonalLoop=1;jettySize=auto;html=1;dashed=1;exitX=0.693;exitY=0.943;exitDx=0;exitDy=0;endArrow=open;endFill=0;exitPerimeter=0;entryX=0;entryY=0.5;entryDx=0;entryDy=0;" edge="1" parent="dEJjFKd357VUm9aCtic6-26" source="nqhM6yKpEPfuKmGDAXL--1" target="nqhM6yKpEPfuKmGDAXL--6">
          <mxGeometry relative="1" as="geometry">
            <mxPoint x="300" y="505" as="sourcePoint" />
            <mxPoint x="400" y="530" as="targetPoint" />
          </mxGeometry>
        </mxCell>
        <mxCell id="dEJjFKd357VUm9aCtic6-2" value="Login" style="ellipse;whiteSpace=wrap;html=1;" vertex="1" parent="dEJjFKd357VUm9aCtic6-26">
          <mxGeometry x="90" y="300" width="140" height="62.5" as="geometry" />
        </mxCell>
        <mxCell id="dEJjFKd357VUm9aCtic6-8" value="&amp;lt;&amp;lt; include &amp;gt;&amp;gt;" style="edgeStyle=orthogonalEdgeStyle;rounded=0;orthogonalLoop=1;jettySize=auto;html=1;exitX=0.5;exitY=1;exitDx=0;exitDy=0;entryX=0.5;entryY=0;entryDx=0;entryDy=0;dashed=1;endArrow=open;endFill=0;" edge="1" parent="dEJjFKd357VUm9aCtic6-26" source="dEJjFKd357VUm9aCtic6-2" target="dEJjFKd357VUm9aCtic6-5">
          <mxGeometry relative="1" as="geometry" />
        </mxCell>
      </root>
    </mxGraphModel>
  </diagram>
  <diagram id="eD2oUeUuzFeVRArjvrbj" name="Page-2">
    <mxGraphModel dx="1434" dy="854" grid="1" gridSize="10" guides="1" tooltips="1" connect="1" arrows="1" fold="1" page="1" pageScale="1" pageWidth="850" pageHeight="1100" math="0" shadow="0">
      <root>
        <mxCell id="0" />
        <mxCell id="1" parent="0" />
      </root>
    </mxGraphModel>
  </diagram>
</mxfile>
